<svg width="15" height="18" viewBox="0 0 15 18" fill="none" xmlns="http://www.w3.org/2000/svg">
<path fill-rule="evenodd" clip-rule="evenodd" d="M10.9059 0C10.9733 2.34761 9.2344 3.97627 7.49749 3.87413C7.21128 2.00066 9.23418 0 10.9059 0ZM0 9.54401C0 12.276 2.25138 17.6405 4.97314 17.6556H4.99093C5.66755 17.6556 6.2641 17.4407 6.79134 17.2507L6.79598 17.249C7.18263 17.1091 7.54784 16.9772 7.83666 16.9772C8.40644 16.9772 8.75126 17.1186 9.15098 17.2828L9.15117 17.2829C9.54617 17.4451 9.99399 17.6289 10.6275 17.6289C13.2169 17.6289 15 12.9969 15 12.7812C15 12.4514 14.7399 12.3003 14.4881 12.1541L14.4867 12.1533L14.486 12.1528C13.9144 11.8208 12.7261 11.1305 12.7261 9.33691C12.7261 7.82207 13.776 7.05723 14.3515 6.6379L14.3518 6.63774L14.7546 6.34422L14.4747 5.93807C13.2797 4.20532 11.292 4.06641 10.6364 4.06641H10.6312C9.75322 4.06641 8.99929 4.35585 8.3934 4.58874L8.38117 4.59342C8.10012 4.70086 7.78556 4.82111 7.65096 4.82111C7.42283 4.82111 7.01264 4.67561 6.61603 4.53467C6.04886 4.33261 5.40583 4.10427 4.80362 4.10427C3.46734 4.10427 0 5.08128 0 9.54401Z" fill="#FBFDFE"/>
</svg>
