<svg width="15" height="17" viewBox="0 0 15 17" fill="none" xmlns="http://www.w3.org/2000/svg">
<path d="M2.21223 0.204355C1.78438 -0.0443173 1.27446 -0.0665538 0.829747 0.140465L8.28611 7.3551L10.7241 4.99021L2.21223 0.204355ZM0.14467 0.808185C0.0506022 1.00048 0 1.21439 0 1.43456V14.6318C0 14.8529 0.0509266 15.0636 0.145968 15.2519L7.59942 8.02126L0.14467 0.808185ZM8.28712 8.68647L0.842754 15.9083C1.0403 15.9966 1.25049 16.0352 1.46036 16.0352C1.71953 16.0352 1.97806 15.9753 2.21226 15.8394L10.7258 11.0464L8.28712 8.68647ZM13.9659 6.81297C13.963 6.81109 13.9598 6.80921 13.9568 6.80765L11.5935 5.47878L8.97349 8.02032L11.5951 10.5568C11.5951 10.5568 13.963 9.22391 13.9659 9.22234C14.4054 8.96459 14.6679 8.51422 14.6679 8.0175C14.6679 7.52078 14.4054 7.07041 13.9659 6.81297Z" fill="#FBFDFE"/>
</svg>
