<svg width="17" height="11" viewBox="0 0 17 11" fill="none" xmlns="http://www.w3.org/2000/svg">
<path fill-rule="evenodd" clip-rule="evenodd" d="M15.0014 0H1.00022C0.501177 0 0.105143 0.372032 0.030136 0.851073L8.00082 6.10253L15.9715 0.851073C15.8965 0.372032 15.5005 0 15.0014 0ZM0 8.99264V2.02804L5.39446 5.58235L0 8.99264ZM16.0015 8.99264L10.6071 5.58235L16.0015 2.02804V8.99264ZM8.2758 7.11767L9.69092 6.18559L15.9695 10.1559C15.8925 10.631 15.4984 11 15.0014 11H1.00017C0.50313 11 0.109096 10.631 0.0320893 10.1559L6.31063 6.18459L7.72575 7.11767C7.80976 7.17267 7.90477 7.19967 8.00077 7.19967C8.09678 7.19967 8.19179 7.17267 8.2758 7.11767Z" fill="#FEFFFF"/>
</svg>
